<?xml version="1.0" encoding="utf-8"?>
<!-- Generator: Adobe Illustrator 18.1.0, SVG Export Plug-In . SVG Version: 6.00 Build 0)  -->
<!DOCTYPE svg PUBLIC "-//W3C//DTD SVG 1.1//EN" "http://www.w3.org/Graphics/SVG/1.1/DTD/svg11.dtd">
<svg version="1.1" id="Layer_1" xmlns="http://www.w3.org/2000/svg" xmlns:xlink="http://www.w3.org/1999/xlink" x="0px" y="0px"
	 viewBox="0 0 900 690" enable-background="new 0 0 900 690" xml:space="preserve">
<rect fill="#E4B036" width="900" height="690"/>
<rect y="425" fill="#D8A137" width="900" height="265"/>
<rect y="1" fill="#D8A137" width="900" height="265"/>
<rect x="44" y="90" fill="#FFF1B7" width="150" height="200"/>
<rect x="258" y="90" fill="#FFF1B7" width="150" height="200"/>
<rect x="473" y="90" fill="#FFF1B7" width="150" height="200"/>
<rect x="688" y="90" fill="#FFF1B7" width="150" height="200"/>
<rect x="688" y="390" fill="#FFF1B7" width="150" height="200"/>
<rect x="473" y="390" fill="#FFF1B7" width="150" height="200"/>
<rect x="259" y="390" fill="#FFF1B7" width="150" height="200"/>
<rect x="43" y="390" fill="#FFF1B7" width="150" height="200"/>
<linearGradient id="SVGID_1_" gradientUnits="userSpaceOnUse" x1="71.0622" y1="166.859" x2="230.4663" y2="258.891">
	<stop  offset="0" style="stop-color:#292624"/>
	<stop  offset="1" style="stop-color:#056467"/>
</linearGradient>
<polygon opacity="0.2" fill="url(#SVGID_1_)" points="205,303 45,303 45,212 194.3,151.3 195,93 205,93 "/>
<polygon fill="#FFEEA9" points="194,290 44,290 44,210 194,150 "/>
<circle fill="#EFCB37" cx="118.5" cy="110.2" r="7"/>
<g>
	<rect x="44" y="90" fill="none" stroke="#FEE576" stroke-width="6" stroke-miterlimit="10" width="150" height="200"/>
	<path fill="none" stroke="#FEE576" stroke-width="6" stroke-miterlimit="10" d="M44,104c0,0,16,21,24,21c24.5,0,78.7,0,102,0
		c8,0,24-21,24-21"/>
	<path fill="none" stroke="#FEE576" stroke-width="6" stroke-miterlimit="10" d="M194,288c0,0-16-21-24-21c-24.5,0-78.7,0-102,0
		c-8,0-24,21-24,21"/>
	<line fill="none" stroke="#FEE576" stroke-width="6" stroke-miterlimit="10" x1="119" y1="125" x2="119" y2="267"/>
</g>
<linearGradient id="SVGID_2_" gradientUnits="userSpaceOnUse" x1="286.0622" y1="166.859" x2="445.4663" y2="258.891">
	<stop  offset="0" style="stop-color:#292624"/>
	<stop  offset="1" style="stop-color:#056467"/>
</linearGradient>
<polygon opacity="0.2" fill="url(#SVGID_2_)" points="420,303 260,303 260,212 409.3,151.3 410,93 420,93 "/>
<polygon fill="#FFEEA9" points="409,290 259,290 259,210 409,150 "/>
<circle fill="#EFCB37" cx="333.5" cy="110.2" r="7"/>
<g>
	<rect x="259" y="90" fill="none" stroke="#FEE576" stroke-width="6" stroke-miterlimit="10" width="150" height="200"/>
	<path fill="none" stroke="#FEE576" stroke-width="6" stroke-miterlimit="10" d="M259,104c0,0,16,21,24,21c24.5,0,78.7,0,102,0
		c8,0,24-21,24-21"/>
	<path fill="none" stroke="#FEE576" stroke-width="6" stroke-miterlimit="10" d="M409,288c0,0-16-21-24-21c-24.5,0-78.7,0-102,0
		c-8,0-24,21-24,21"/>
	<line fill="none" stroke="#FEE576" stroke-width="6" stroke-miterlimit="10" x1="334" y1="125" x2="334" y2="267"/>
</g>
<linearGradient id="SVGID_3_" gradientUnits="userSpaceOnUse" x1="501.0622" y1="166.859" x2="660.4663" y2="258.891">
	<stop  offset="0" style="stop-color:#292624"/>
	<stop  offset="1" style="stop-color:#056467"/>
</linearGradient>
<polygon opacity="0.2" fill="url(#SVGID_3_)" points="635,303 475,303 475,212 624.3,151.3 625,93 635,93 "/>
<polygon fill="#FFEEA9" points="624,290 474,290 474,210 624,150 "/>
<circle fill="#EFCB37" cx="548.5" cy="110.2" r="7"/>
<g>
	<rect x="474" y="90" fill="none" stroke="#FEE576" stroke-width="6" stroke-miterlimit="10" width="150" height="200"/>
	<path fill="none" stroke="#FEE576" stroke-width="6" stroke-miterlimit="10" d="M474,104c0,0,16,21,24,21c24.5,0,78.7,0,102,0
		c8,0,24-21,24-21"/>
	<path fill="none" stroke="#FEE576" stroke-width="6" stroke-miterlimit="10" d="M624,288c0,0-16-21-24-21c-24.5,0-78.7,0-102,0
		c-8,0-24,21-24,21"/>
	<line fill="none" stroke="#FEE576" stroke-width="6" stroke-miterlimit="10" x1="549" y1="125" x2="549" y2="267"/>
</g>
<linearGradient id="SVGID_4_" gradientUnits="userSpaceOnUse" x1="716.0622" y1="166.859" x2="875.4663" y2="258.891">
	<stop  offset="0" style="stop-color:#292624"/>
	<stop  offset="1" style="stop-color:#056467"/>
</linearGradient>
<polygon opacity="0.2" fill="url(#SVGID_4_)" points="850,303 690,303 690,212 839.3,151.3 840,93 850,93 "/>
<polygon fill="#FFEEA9" points="839,290 689,290 689,210 839,150 "/>
<circle fill="#EFCB37" cx="763.5" cy="110.2" r="7"/>
<g>
	<rect x="689" y="90" fill="none" stroke="#FEE576" stroke-width="6" stroke-miterlimit="10" width="150" height="200"/>
	<path fill="none" stroke="#FEE576" stroke-width="6" stroke-miterlimit="10" d="M689,104c0,0,16,21,24,21c24.5,0,78.7,0,102,0
		c8,0,24-21,24-21"/>
	<path fill="none" stroke="#FEE576" stroke-width="6" stroke-miterlimit="10" d="M839,288c0,0-16-21-24-21c-24.5,0-78.7,0-102,0
		c-8,0-24,21-24,21"/>
	<line fill="none" stroke="#FEE576" stroke-width="6" stroke-miterlimit="10" x1="764" y1="125" x2="764" y2="267"/>
</g>
<linearGradient id="SVGID_5_" gradientUnits="userSpaceOnUse" x1="71.0622" y1="466.859" x2="230.4663" y2="558.891">
	<stop  offset="0" style="stop-color:#292624"/>
	<stop  offset="1" style="stop-color:#056467"/>
</linearGradient>
<polygon opacity="0.2" fill="url(#SVGID_5_)" points="205,603 45,603 45,512 194.3,451.3 195,393 205,393 "/>
<polygon fill="#FFEEA9" points="194,590 44,590 44,510 194,450 "/>
<circle fill="#EFCB37" cx="118.5" cy="410.2" r="7"/>
<g>
	<rect x="44" y="390" fill="none" stroke="#FEE576" stroke-width="6" stroke-miterlimit="10" width="150" height="200"/>
	<path fill="none" stroke="#FEE576" stroke-width="6" stroke-miterlimit="10" d="M44,404c0,0,16,21,24,21c24.5,0,78.7,0,102,0
		c8,0,24-21,24-21"/>
	<path fill="none" stroke="#FEE576" stroke-width="6" stroke-miterlimit="10" d="M194,588c0,0-16-21-24-21c-24.5,0-78.7,0-102,0
		c-8,0-24,21-24,21"/>
	<line fill="none" stroke="#FEE576" stroke-width="6" stroke-miterlimit="10" x1="119" y1="425" x2="119" y2="567"/>
</g>
<linearGradient id="SVGID_6_" gradientUnits="userSpaceOnUse" x1="286.0622" y1="466.859" x2="445.4663" y2="558.891">
	<stop  offset="0" style="stop-color:#292624"/>
	<stop  offset="1" style="stop-color:#056467"/>
</linearGradient>
<polygon opacity="0.2" fill="url(#SVGID_6_)" points="420,603 260,603 260,512 409.3,451.3 410,393 420,393 "/>
<polygon fill="#FFEEA9" points="409,590 259,590 259,510 409,450 "/>
<circle fill="#EFCB37" cx="333.5" cy="410.2" r="7"/>
<g>
	<rect x="259" y="390" fill="none" stroke="#FEE576" stroke-width="6" stroke-miterlimit="10" width="150" height="200"/>
	<path fill="none" stroke="#FEE576" stroke-width="6" stroke-miterlimit="10" d="M259,404c0,0,16,21,24,21c24.5,0,78.7,0,102,0
		c8,0,24-21,24-21"/>
	<path fill="none" stroke="#FEE576" stroke-width="6" stroke-miterlimit="10" d="M409,588c0,0-16-21-24-21c-24.5,0-78.7,0-102,0
		c-8,0-24,21-24,21"/>
	<line fill="none" stroke="#FEE576" stroke-width="6" stroke-miterlimit="10" x1="334" y1="425" x2="334" y2="567"/>
</g>
<linearGradient id="SVGID_7_" gradientUnits="userSpaceOnUse" x1="501.0622" y1="466.859" x2="660.4663" y2="558.891">
	<stop  offset="0" style="stop-color:#292624"/>
	<stop  offset="1" style="stop-color:#056467"/>
</linearGradient>
<polygon opacity="0.2" fill="url(#SVGID_7_)" points="635,603 475,603 475,512 624.3,451.3 625,393 635,393 "/>
<polygon fill="#FFEEA9" points="624,590 474,590 474,510 624,450 "/>
<circle fill="#EFCB37" cx="548.5" cy="410.2" r="7"/>
<g>
	<rect x="474" y="390" fill="none" stroke="#FEE576" stroke-width="6" stroke-miterlimit="10" width="150" height="200"/>
	<path fill="none" stroke="#FEE576" stroke-width="6" stroke-miterlimit="10" d="M474,404c0,0,16,21,24,21c24.5,0,78.7,0,102,0
		c8,0,24-21,24-21"/>
	<path fill="none" stroke="#FEE576" stroke-width="6" stroke-miterlimit="10" d="M624,588c0,0-16-21-24-21c-24.5,0-78.7,0-102,0
		c-8,0-24,21-24,21"/>
	<line fill="none" stroke="#FEE576" stroke-width="6" stroke-miterlimit="10" x1="549" y1="425" x2="549" y2="567"/>
</g>
<linearGradient id="SVGID_8_" gradientUnits="userSpaceOnUse" x1="716.0622" y1="466.859" x2="875.4663" y2="558.891">
	<stop  offset="0" style="stop-color:#292624"/>
	<stop  offset="1" style="stop-color:#056467"/>
</linearGradient>
<polygon opacity="0.2" fill="url(#SVGID_8_)" points="850,603 690,603 690,512 839.3,451.3 840,393 850,393 "/>
<polygon fill="#FFEEA9" points="839,590 689,590 689,510 839,450 "/>
<circle fill="#EFCB37" cx="763.5" cy="410.2" r="7"/>
<g>
	<rect x="689" y="390" fill="none" stroke="#FEE576" stroke-width="6" stroke-miterlimit="10" width="150" height="200"/>
	<path fill="none" stroke="#FEE576" stroke-width="6" stroke-miterlimit="10" d="M689,404c0,0,16,21,24,21c24.5,0,78.7,0,102,0
		c8,0,24-21,24-21"/>
	<path fill="none" stroke="#FEE576" stroke-width="6" stroke-miterlimit="10" d="M839,588c0,0-16-21-24-21c-24.5,0-78.7,0-102,0
		c-8,0-24,21-24,21"/>
	<line fill="none" stroke="#FEE576" stroke-width="6" stroke-miterlimit="10" x1="764" y1="425" x2="764" y2="567"/>
</g>
<circle fill="#97C748" cx="118.3" cy="195" r="50"/>
<path opacity="0.3" fill="#97C748" d="M168.3,195c0,27.6-22.4,50-50,50c-25.1,0-45.9-18.5-49.5-42.7l90-36.6
	C164.8,173.9,168.3,184,168.3,195z"/>
<circle fill="#728DC5" cx="333.3" cy="195" r="50"/>
<path opacity="0.3" fill="#728DC5" d="M383.3,195c0,27.6-22.4,50-50,50c-25.1,0-45.9-18.5-49.5-42.7l90-36.6
	C379.8,173.9,383.3,184,383.3,195z"/>
<circle fill="#7FC9AE" cx="549.3" cy="195" r="50"/>
<circle fill="#E76BA7" cx="763.3" cy="195" r="50"/>
<circle fill="#E66C6C" cx="118.3" cy="495" r="50"/>
<circle fill="#A171AE" cx="333.3" cy="495" r="50"/>
<circle fill="#71CCDC" cx="549.3" cy="495" r="50"/>
<circle fill="#6F6E8E" cx="763.3" cy="495" r="50"/>
<path opacity="0.3" fill="#7FC9AE" d="M599.3,195c0,27.6-22.4,50-50,50c-25.1,0-45.9-18.5-49.5-42.7l90-36.6
	C595.8,173.9,599.3,184,599.3,195z"/>
<path opacity="0.3" fill="#E76BA7" d="M813.3,195c0,27.6-22.4,50-50,50c-25.1,0-45.9-18.5-49.5-42.7l90-36.6
	C809.8,173.9,813.3,184,813.3,195z"/>
<path opacity="0.3" fill="#E66C6C" d="M168.3,495c0,27.6-22.4,50-50,50c-25.1,0-45.9-18.5-49.5-42.7l90-36.6
	C164.8,473.9,168.3,484,168.3,495z"/>
<path opacity="0.3" fill="#A171AE" d="M383.3,495c0,27.6-22.4,50-50,50c-25.1,0-45.9-18.5-49.5-42.7l90-36.6
	C379.8,473.9,383.3,484,383.3,495z"/>
<path opacity="0.3" fill="#71CCDC" d="M599.3,495c0,27.6-22.4,50-50,50c-25.1,0-45.9-18.5-49.5-42.7l90-36.6
	C595.8,473.9,599.3,484,599.3,495z"/>
<path opacity="0.3" fill="#6F6E8E" d="M813.3,495c0,27.6-22.4,50-50,50c-25.1,0-45.9-18.5-49.5-42.7l90-36.6
	C809.8,473.9,813.3,484,813.3,495z"/>
<g>
	<g>
		<line fill="none" stroke="#FEF9E4" stroke-miterlimit="10" x1="111" y1="216.5" x2="126" y2="216.5"/>
		<line fill="none" stroke="#FEF9E4" stroke-miterlimit="10" x1="111" y1="213.5" x2="126" y2="213.5"/>
		<line fill="none" stroke="#FEF9E4" stroke-miterlimit="10" x1="111" y1="222.5" x2="126" y2="222.5"/>
		<line fill="none" stroke="#FEF9E4" stroke-miterlimit="10" x1="111" y1="219.5" x2="126" y2="219.5"/>
		<line fill="none" stroke="#FEF9E4" stroke-miterlimit="10" x1="125.4" y1="216.5" x2="111.5" y2="219.5"/>
	</g>
	<path fill="none" stroke="#FEF9E4" stroke-miterlimit="10" d="M114,222.2c0,5.8,9.6,5.7,9.6,0.4"/>
	<line fill="none" stroke="#FEF9E4" stroke-miterlimit="10" x1="118.5" y1="210" x2="118.5" y2="187"/>
	<path fill="none" stroke="#FEF9E4" stroke-miterlimit="10" d="M120.5,180c-7,0-7,7,0,7"/>
	<path fill="none" stroke="#FEF9E4" stroke-miterlimit="10" d="M120.5,175c-4,0-4,5,0,5"/>
	<circle fill="none" stroke="#FEF9E4" stroke-miterlimit="10" cx="118.5" cy="183" r="20"/>
</g>
<g>
	<polygon fill="none" stroke="#FEF9E4" stroke-miterlimit="10" points="143.5,516.5 93.5,516.5 93.5,489.5 118,470.5 143.5,489.5 	
		"/>
	<g>
		<rect x="130.5" y="496.5" fill="none" stroke="#FEF9E4" stroke-miterlimit="10" width="8" height="12"/>
		<line fill="none" stroke="#FEF9E4" stroke-miterlimit="10" x1="134.5" y1="497" x2="134.5" y2="509"/>
		<line fill="none" stroke="#FEF9E4" stroke-miterlimit="10" x1="130" y1="502.5" x2="138" y2="502.5"/>
	</g>
	<g>
		<rect x="98.5" y="496.5" fill="none" stroke="#FEF9E4" stroke-miterlimit="10" width="8" height="12"/>
		<line fill="none" stroke="#FEF9E4" stroke-miterlimit="10" x1="102.5" y1="497" x2="102.5" y2="509"/>
		<line fill="none" stroke="#FEF9E4" stroke-miterlimit="10" x1="98" y1="502.5" x2="106" y2="502.5"/>
	</g>
	<rect x="110.5" y="494.5" fill="none" stroke="#FEF9E4" stroke-miterlimit="10" width="15" height="22"/>
	<path fill="none" stroke="#FEF9E4" stroke-miterlimit="10" d="M118.5,517"/>
	<path fill="none" stroke="#FEF9E4" stroke-miterlimit="10" d="M118.5,495"/>
	<line fill="none" stroke="#FEF9E4" stroke-miterlimit="10" x1="97" y1="486.8" x2="89" y2="493"/>
	<line fill="none" stroke="#FEF9E4" stroke-miterlimit="10" x1="138" y1="485.4" x2="148.5" y2="493"/>
	<polygon fill="none" stroke="#FEF9E4" stroke-miterlimit="10" points="139.5,486.5 131.5,480.5 131.5,472.5 139.5,472.5 	"/>
</g>
<g>
	<rect x="525.5" y="465.5" fill="none" stroke="#FEF9E4" stroke-miterlimit="10" width="46" height="60"/>
	<line fill="none" stroke="#FEF9E4" stroke-miterlimit="10" x1="529" y1="470.5" x2="537" y2="470.5"/>
	<line fill="none" stroke="#FEF9E4" stroke-miterlimit="10" x1="529" y1="474.5" x2="540" y2="474.5"/>
	<line fill="none" stroke="#FEF9E4" stroke-miterlimit="10" x1="529" y1="516.5" x2="537" y2="516.5"/>
	<line fill="none" stroke="#FEF9E4" stroke-miterlimit="10" x1="529" y1="483.5" x2="568" y2="483.5"/>
	<line fill="none" stroke="#FEF9E4" stroke-miterlimit="10" x1="529" y1="487.5" x2="568" y2="487.5"/>
	<line fill="none" stroke="#FEF9E4" stroke-miterlimit="10" x1="529" y1="491.5" x2="568" y2="491.5"/>
	<line fill="none" stroke="#FEF9E4" stroke-miterlimit="10" x1="529" y1="495.5" x2="568" y2="495.5"/>
	<line fill="none" stroke="#FEF9E4" stroke-miterlimit="10" x1="529" y1="499.5" x2="568" y2="499.5"/>
	<line fill="none" stroke="#FEF9E4" stroke-miterlimit="10" x1="529" y1="503.5" x2="568" y2="503.5"/>
	<line fill="none" stroke="#FEF9E4" stroke-miterlimit="10" x1="529" y1="507.5" x2="568" y2="507.5"/>
	<line fill="none" stroke="#FEF9E4" stroke-miterlimit="10" x1="529" y1="511.5" x2="568" y2="511.5"/>
	<line fill="none" stroke="#FEF9E4" stroke-miterlimit="10" x1="560" y1="470.5" x2="568" y2="470.5"/>
</g>
<path fill="none" stroke="#FEF9E4" stroke-miterlimit="10" d="M336.5,493.7l35,0.7v-6.6l-35-8.9v-17.2c0-2.1-1.4-3.8-3.5-3.8
	c-2.1,0-3.5,1.7-3.5,3.8v17l-36,9.1v6.6l36-0.8v19.1c0,0,0,0.1,0,0.1l-8.9,4l0.4,2l12-2.4c0.1,0,0.3,0,0.4,0c0,0,0.2,0,0.2,0v0
	l11.3,2.3l0.3-2l-8.4-3.8c0-0.1-0.3-0.1-0.3-0.2V493.7z"/>
<line fill="none" stroke="#FEF9E4" stroke-miterlimit="10" x1="298.5" y1="500" x2="298.5" y2="511"/>
<line fill="none" stroke="#FEF9E4" stroke-miterlimit="10" x1="316.5" y1="500" x2="316.5" y2="511"/>
<line fill="none" stroke="#FEF9E4" stroke-miterlimit="10" x1="307.5" y1="500" x2="307.5" y2="527"/>
<line fill="none" stroke="#FEF9E4" stroke-miterlimit="10" x1="349.5" y1="500" x2="349.5" y2="511"/>
<line fill="none" stroke="#FEF9E4" stroke-miterlimit="10" x1="367.5" y1="500" x2="367.5" y2="511"/>
<line fill="none" stroke="#FEF9E4" stroke-miterlimit="10" x1="358.5" y1="500" x2="358.5" y2="527"/>
<g>
	<path fill="none" stroke="#FEF9E4" stroke-miterlimit="10" d="M802.5,514c0,2.1-1.9,3.5-4,3.5h-62.2c-2.1,0-1.8-1.4-1.8-3.5v-0.2
		c0-2.1-0.4-4.2,1.8-4.2h62.2c2.1,0,4,2.1,4,4.2V514z"/>
	<rect x="741.5" y="509.5" fill="none" stroke="#FEF9E4" stroke-miterlimit="10" width="12" height="8"/>
	<line fill="none" stroke="#FEF9E4" stroke-miterlimit="10" x1="797.5" y1="510" x2="797.5" y2="518"/>
	<polygon fill="none" stroke="#FEF9E4" stroke-miterlimit="10" points="734.5,516.9 729.4,515.7 721.4,510.5 734.5,510.5 	"/>
	<line fill="none" stroke="#FEF9E4" stroke-miterlimit="10" x1="727" y1="513.5" x2="732" y2="513.5"/>
</g>
<g>
	<line fill="none" stroke="#FEF9E4" stroke-miterlimit="10" x1="755" y1="468.5" x2="772" y2="468.5"/>
	<polygon fill="none" stroke="#FEF9E4" stroke-miterlimit="10" points="769.5,475.1 769.5,468.5 757.5,468.5 757.5,475.1 743.4,483 
		742.4,501.3 744.2,502.5 783,502.5 784.7,501.3 783.6,483 	"/>
	<line fill="none" stroke="#FEF9E4" stroke-miterlimit="10" x1="743" y1="485.5" x2="784" y2="485.5"/>
	<line fill="none" stroke="#FEF9E4" stroke-miterlimit="10" x1="743" y1="497.5" x2="785" y2="497.5"/>
</g>
<g>
	<polygon fill="none" stroke="#FEF9E4" stroke-miterlimit="10" points="357.5,216.5 307.5,216.5 307.5,189.5 320.1,189.5 320,179 
		333,168.8 345.5,179.1 345.4,189.5 357.5,189.5 	"/>
	<g>
		<rect x="344.5" y="196.5" fill="none" stroke="#FEF9E4" stroke-miterlimit="10" width="8" height="12"/>
		<line fill="none" stroke="#FEF9E4" stroke-miterlimit="10" x1="348.5" y1="196" x2="348.5" y2="208"/>
		<line fill="none" stroke="#FEF9E4" stroke-miterlimit="10" x1="345" y1="202.5" x2="353" y2="202.5"/>
	</g>
	<g>
		<rect x="312.5" y="196.5" fill="none" stroke="#FEF9E4" stroke-miterlimit="10" width="8" height="12"/>
		<line fill="none" stroke="#FEF9E4" stroke-miterlimit="10" x1="316.5" y1="196" x2="316.5" y2="208"/>
		<line fill="none" stroke="#FEF9E4" stroke-miterlimit="10" x1="313" y1="202.5" x2="321" y2="202.5"/>
	</g>
	<rect x="324.5" y="194.5" fill="none" stroke="#FEF9E4" stroke-miterlimit="10" width="15" height="22"/>
	<line fill="none" stroke="#FEF9E4" stroke-miterlimit="10" x1="332.5" y1="194" x2="332.5" y2="216"/>
	<circle fill="none" stroke="#FEF9E4" stroke-miterlimit="10" cx="333" cy="183.5" r="7"/>
	<line fill="none" stroke="#FEF9E4" stroke-miterlimit="10" x1="317" y1="180.8" x2="324.1" y2="175.4"/>
	<line fill="none" stroke="#FEF9E4" stroke-miterlimit="10" x1="342.6" y1="176.2" x2="348.2" y2="180.8"/>
	<line fill="none" stroke="#FEF9E4" stroke-miterlimit="10" x1="331.5" y1="180" x2="331.5" y2="185"/>
	<line fill="none" stroke="#FEF9E4" stroke-miterlimit="10" x1="332" y1="185.5" x2="336" y2="185.5"/>
</g>
<g>
	<line fill="none" stroke="#FEF9E4" stroke-miterlimit="10" x1="540" y1="165.5" x2="557" y2="165.5"/>
	<circle fill="none" stroke="#FEF9E4" stroke-miterlimit="10" cx="529.8" cy="178.7" r="2.9"/>
	<circle fill="none" stroke="#FEF9E4" stroke-miterlimit="10" cx="572.8" cy="165.7" r="2.9"/>
	<circle fill="none" stroke="#FEF9E4" stroke-miterlimit="10" cx="563.3" cy="200.9" r="5.4"/>
	<circle fill="none" stroke="#FEF9E4" stroke-miterlimit="10" cx="538.8" cy="221.4" r="4.9"/>
	<path fill="none" stroke="#FEF9E4" stroke-miterlimit="10" d="M566.1,207.5c-0.9,0.4-1.9,0.6-2.9,0.6c-4,0-7.3-3.3-7.3-7.3
		c0-2.6,1.4-4.9,3.5-6.2l-4.9-9.5v-19.6h-12v19.6l-18.1,35.3l1.8,1.2h5.5c0-0.1,0-0.1,0-0.2c0-4,3.3-7.3,7.3-7.3s7.3,3.3,7.3,7.3
		c0,0.1,0,0.1,0,0.2H571l1.7-1.2L566.1,207.5z"/>
	<circle fill="none" stroke="#FEF9E4" stroke-miterlimit="10" cx="519.3" cy="192.8" r="7.3"/>
</g>
<g>
	<polygon fill="none" stroke="#FEF9E4" stroke-miterlimit="10" points="760.1,189.5 765.8,194.3 770.5,198.1 762.1,204.9 
		765.9,219.4 793.8,193.5 790.3,176 772.6,172.4 766.2,179.5 	"/>
	<polygon fill="none" stroke="#FEF9E4" stroke-miterlimit="10" points="756.9,204.6 764.9,198.1 761.2,195.1 754.9,189.7 761,179.6 
		754.7,172 736.7,176 733.2,193.5 760.7,219.1 	"/>
</g>
<circle fill="none" stroke="#FEF9E4" stroke-width="3" stroke-miterlimit="10" cx="134" cy="334" r="12"/>
<circle fill="none" stroke="#FEF9E4" stroke-width="3" stroke-miterlimit="10" cx="815" cy="638" r="12"/>
<g>
	<line fill="none" stroke="#FEF9E4" stroke-width="3" stroke-miterlimit="10" x1="540" y1="65" x2="519.5" y2="44.5"/>
	<line fill="none" stroke="#FEF9E4" stroke-width="3" stroke-miterlimit="10" x1="559.5" y1="65" x2="580" y2="44.5"/>
	<line fill="none" stroke="#FEF9E4" stroke-width="3" stroke-miterlimit="10" x1="549.5" y1="65" x2="549.5" y2="24"/>
</g>
<g>
	<line fill="none" stroke="#FEF9E4" stroke-width="3" stroke-miterlimit="10" x1="128.5" y1="626" x2="149" y2="646.5"/>
	<line fill="none" stroke="#FEF9E4" stroke-width="3" stroke-miterlimit="10" x1="109" y1="626" x2="88.5" y2="646.5"/>
	<line fill="none" stroke="#FEF9E4" stroke-width="3" stroke-miterlimit="10" x1="118.5" y1="626" x2="118.5" y2="667"/>
</g>
<circle fill="none" stroke="#FEF9E4" stroke-width="3" stroke-miterlimit="10" cx="227" cy="492" r="12"/>
<circle fill="none" stroke="#FEF9E4" stroke-width="3" stroke-miterlimit="10" cx="871" cy="193" r="12"/>
<line fill="none" stroke="#FEF9E4" stroke-width="3" stroke-miterlimit="10" x1="677" y1="616" x2="645.8" y2="647.2"/>
<line fill="none" stroke="#FEF9E4" stroke-width="3" stroke-miterlimit="10" x1="243" y1="39" x2="211.8" y2="70.2"/>
<g>
	<line fill="none" stroke="#FEF9E4" stroke-width="3" stroke-miterlimit="10" x1="324" y1="365" x2="303.5" y2="344.5"/>
	<line fill="none" stroke="#FEF9E4" stroke-width="3" stroke-miterlimit="10" x1="343.5" y1="365" x2="364" y2="344.5"/>
	<line fill="none" stroke="#FEF9E4" stroke-width="3" stroke-miterlimit="10" x1="333.5" y1="365" x2="333.5" y2="324"/>
</g>
<g>
	<line fill="none" stroke="#FEF9E4" stroke-width="3" stroke-miterlimit="10" x1="559.5" y1="616" x2="580" y2="636.5"/>
	<line fill="none" stroke="#FEF9E4" stroke-width="3" stroke-miterlimit="10" x1="540" y1="616" x2="519.5" y2="636.5"/>
	<line fill="none" stroke="#FEF9E4" stroke-width="3" stroke-miterlimit="10" x1="549.5" y1="616" x2="549.5" y2="657"/>
</g>
<g>
	<line fill="none" stroke="#FEF9E4" stroke-width="3" stroke-miterlimit="10" x1="755" y1="365" x2="734.5" y2="344.5"/>
	<line fill="none" stroke="#FEF9E4" stroke-width="3" stroke-miterlimit="10" x1="774.5" y1="365" x2="795" y2="344.5"/>
	<line fill="none" stroke="#FEF9E4" stroke-width="3" stroke-miterlimit="10" x1="764.5" y1="365" x2="764.5" y2="324"/>
</g>
<g>
	<line fill="none" stroke="#FEF9E4" stroke-width="3" stroke-miterlimit="10" x1="108" y1="65" x2="87.5" y2="44.5"/>
	<line fill="none" stroke="#FEF9E4" stroke-width="3" stroke-miterlimit="10" x1="127.5" y1="65" x2="148" y2="44.5"/>
	<line fill="none" stroke="#FEF9E4" stroke-width="3" stroke-miterlimit="10" x1="117.5" y1="65" x2="117.5" y2="24"/>
</g>
<line fill="none" stroke="#FEF9E4" stroke-width="3" stroke-miterlimit="10" x1="855.8" y1="75.2" x2="887" y2="44"/>
<circle fill="none" stroke="#FEF9E4" stroke-width="3" stroke-miterlimit="10" cx="364" cy="657" r="12"/>
<circle fill="none" stroke="#FEF9E4" stroke-width="3" stroke-miterlimit="10" cx="500" cy="345" r="12"/>
<circle fill="none" stroke="#FEF9E4" stroke-width="3" stroke-miterlimit="10" cx="661" cy="137" r="12"/>
</svg>
